<svg xmlns="http://www.w3.org/2000/svg" width="21" height="20" viewBox="0 0 21 20">
    <path fill="#7D53F8" fill-rule="evenodd" d="M2.495 2.376c3.102-2.954 8.053-3.182 11.439-.525 3.386 2.656 4.1 7.327 1.65 10.793l4.938 4.702c.412.393.573.965.422 1.502-.15.536-.59.955-1.154 1.099a1.688 1.688 0 0 1-1.576-.402l-4.939-4.703c-3.639 2.333-8.543 1.653-11.332-1.572-2.789-3.225-2.55-7.94.552-10.894zm6.03.747c-2.897 0-5.246 2.237-5.246 4.996 0 2.76 2.349 4.997 5.246 4.997 2.896-.003 5.243-2.239 5.247-4.997 0-2.76-2.35-4.996-5.247-4.996z"/>
</svg>